#!OML:ASF H:\Terrain\Patient Classification 1\PLAYGROUND\JustinFriday\JustinFriday.ASF
:FULLY-SPECIFIED
:DEGREES
74
root 13.8455 27.676 43.6157 122.35 5.83165 -173.383
lowerback 39.4703 -7.68436 2.14016
upperback 15.2947 -3.24239 -2.36126
thorax -2.44904 1.31923 -2.55739
lowerneck 1.35191 0.437808 -13.6787
upperneck 10.4092 0.369307 10.4538
head 2.7984 0.224209 5.48086
rclavicle 7.30534e-015 2.94201e-014
rhumerus 59.9392 13.0984 -75.8187
rradius 68.9712
rwrist 19.4959
rhand 1.31703 -26.8265
rfingers 7.12502
rthumb 26.8512 -54.9398
lclavicle 7.30534e-015 2.94201e-014
lhumerus 54.9435 3.42056 61.7221
lradius 62.5685
lwrist -22.6627
lhand 6.11346 0.789945
lfingers 7.12502
lthumb 31.4314 28.1083
rfemur -80.0899 -18.7497 31.8032
rtibia 147.753
rfoot -3.90754 -1.46837
rtoes 14.3234
lfemur -89.1216 50.2009 -7.5533
ltibia 152.939
lfoot -15.9883 -24.2923
ltoes -4.79803
75
root 13.8445 27.6994 43.5267 122.272 5.87517 -173.296
lowerback 39.2513 -7.66447 2.34769
upperback 15.127 -3.25439 -2.31914
thorax -2.57766 1.26787 -2.61944
lowerneck 1.47292 0.421892 -13.5492
upperneck 10.6739 0.349246 10.417
head 2.86026 0.223722 5.4517
rclavicle -2.83765e-014 -1.90833e-014
rhumerus 59.0634 13.2017 -75.7914
rradius 69.6791
rwrist 19.2754
rhand 1.04446 -27.022
rfingers 7.12502
rthumb 26.5904 -55.1752
lclavicle -2.83765e-014 -1.90833e-014
lhumerus 54.204 3.06594 62.0346
lradius 63.1709
lwrist -23.1747
lhand 5.97534 0.751484
lfingers 7.12502
lthumb 31.2998 28.0954
rfemur -79.2278 -19.014 31.5247
rtibia 148.106
rfoot -4.0801 -1.2928
rtoes 16.21
lfemur -88.2052 51.7436 -6.12124
ltibia 153.377
lfoot -16.4323 -25.2696
ltoes -3.87664
76
root 13.8386 27.7147 43.4229 122.245 5.84993 -173.239
lowerback 38.9139 -7.67879 2.60492
upperback 14.9917 -3.30644 -2.37482
thorax -2.6461 1.20361 -2.79682
lowerneck 1.11948 0.398508 -13.415
upperneck 11.5589 0.367718 10.5204
head 3.17875 0.265161 5.48223
rclavicle 2.0276e-014 -2.94201e-014
rhumerus 58.1614 13.2689 -75.8845
rradius 70.3766
rwrist 19.1145
rhand 0.837645 -27.1701
rfingers 7.12502
rthumb 26.3924 -55.3531
lclavicle 2.0276e-014 -2.94201e-014
lhumerus 53.452 2.67178 62.2051
lradius 63.9111
lwrist -23.6133
lhand 5.71003 0.767581
lfingers 7.12502
lthumb 31.047 28.1601
rfemur -78.7493 -19.5013 31.6104
rtibia 148.384
rfoot -3.75857 -1.60207
rtoes 13.8991
lfemur -87.4192 53.1083 -5.10591
ltibia 153.885
lfoot -16.9349 -25.3689
ltoes -5.15217
77
root 13.8243 27.7384 43.3021 122.462 5.62251 -173.112
lowerback 38.0737 -7.7397 2.95395
upperback 14.8383 -3.48083 -2.3746
thorax -2.58462 1.04608 -2.92678
lowerneck 1.56327 0.330802 -13.358
upperneck 11.589 0.2569 10.3685
head 3.13058 0.206194 5.42072
rclavicle -6.36111e-015 -1.94809e-014
rhumerus 57.1457 13.4327 -75.8614
rradius 71.09
rwrist 19.0941
rhand 0.747542 -27.1799
rfingers 7.12502
rthumb 26.3062 -55.3758
lclavicle -6.36111e-015 -1.94809e-014
lhumerus 52.5023 2.28803 62.504
lradius 64.7294
lwrist -23.9947
lhand 5.41446 0.76496
lfingers 7.12502
lthumb 30.7652 28.2109
rfemur -78.5333 -20.7442 31.2295
rtibia 148.745
rfoot -3.3255 -1.58468
rtoes 10.4662
lfemur -87.0237 54.0443 -4.87884
ltibia 154.446
lfoot -18.3958 -24.5827
ltoes -6.52022
78
root 13.8321 27.7622 43.2085 122.074 5.62767 -173.292
lowerback 38.3148 -7.50909 2.64732
upperback 14.608 -3.34835 -2.25819
thorax -2.8776 1.05386 -2.69302
lowerneck 2.3641 0.285736 -13.3682
upperneck 11.0784 0.128171 10.2305
head 2.8644 0.122372 5.36329
rclavicle -1.54058e-015 1.66979e-014
rhumerus 56.1171 13.6216 -75.7837
rradius 71.8189
rwrist 19.1651
rhand 0.547209 -27.1041
rfingers 7.12502
rthumb 26.1144 -55.3285
lclavicle -1.54058e-015 1.66979e-014
lhumerus 51.5021 1.90518 62.9359
lradius 65.5453
lwrist -24.1945
lhand 5.01355 0.8504
lfingers 7.12502
lthumb 30.3829 28.3677
rfemur -77.6712 -20.7982 30.9936
rtibia 148.927
rfoot -0.341198 -3.39463
rtoes 14.5512
lfemur -84.5598 55.6097 -2.68986
ltibia 154.695
lfoot -20.1383 -24.0757
ltoes -10.1593
79
root 13.8258 27.7845 43.0927 122.129 5.56012 -173.218
lowerback 37.8542 -7.49489 2.90432
upperback 14.3655 -3.42275 -2.21355
thorax -3.01418 0.942956 -2.76011
lowerneck 2.39879 0.366927 -13.6578
upperneck 11.8062 0.244662 10.5414
head 3.05852 0.200085 5.5274
rclavicle -3.51849e-014 2.5842e-014
rhumerus 55.0339 13.8065 -75.8257
rradius 72.6272
rwrist 19.165
rhand 0.31159 -27.181
rfingers 7.12502
rthumb 25.8888 -55.4385
lclavicle -3.51849e-014 2.5842e-014
lhumerus 50.455 1.47354 63.3193
lradius 66.3087
lwrist -24.3141
lhand 4.51052 0.866868
lfingers 7.12502
lthumb 29.903 28.4717
rfemur -77.2095 -21.5925 30.277
rtibia 149.217
rfoot 2.42882 -4.36551
rtoes 16.6672
lfemur -83.4765 57.1995 -1.30151
ltibia 155.217
lfoot -20.2966 -24.719
ltoes -9.11899
80
root 13.8461 27.8208 43.0024 121.475 5.72886 -173.511
lowerback 38.5146 -7.11585 2.3877
upperback 14.0484 -3.1442 -2.0988
thorax -3.51638 1.01998 -2.46772
lowerneck 2.87087 0.332803 -13.3769
upperneck 11.8724 0.190175 10.2968
head 3.01092 0.178421 5.40096
rclavicle -9.19379e-015 -3.97569e-015
rhumerus 53.8671 13.9769 -75.9116
rradius 73.4436
rwrist 19.1676
rhand 0.129484 -27.283
rfingers 7.12502
rthumb 25.7144 -55.5659
lclavicle -9.19379e-015 -3.97569e-015
lhumerus 49.2859 1.03569 63.8287
lradius 67.2005
lwrist -24.7929
lhand 4.21471 0.645119
lfingers 7.12502
lthumb 29.6207 28.3004
rfemur -75.2561 -20.5543 30.4822
rtibia 148.772
rfoot 6.41558 -5.87388
rtoes 17.2156
lfemur -78.8307 59.0001 3.4331
ltibia 155.32
lfoot -21.7816 -25.8563
ltoes -8.3453
81
root 13.8215 27.8461 42.8624 122.072 5.31202 -173.266
lowerback 37.3068 -7.31379 3.03736
upperback 13.7872 -3.48855 -2.22007
thorax -3.48309 0.753306 -2.8243
lowerneck 2.97066 0.351029 -13.1515
upperneck 12.1461 0.228047 10.2555
head 3.07195 0.215089 5.35578
rclavicle -2.15681e-014 -5.1684e-015
rhumerus 52.7467 14.1395 -75.9934
rradius 74.1602
rwrist 19.3123
rhand -0.096158 -27.2852
rfingers 7.12502
rthumb 25.4983 -55.5992
lclavicle -2.15681e-014 -5.1684e-015
lhumerus 48.2156 0.654326 64.5756
lradius 68.1867
lwrist -25.4336
lhand 4.0244 0.377407
lfingers 7.12502
lthumb 29.439 28.0648
rfemur -75.9007 -22.11 28.6073
rtibia 149.387
rfoot 8.80841 -5.41278
rtoes 21.551
lfemur -78.9197 59.8487 3.77988
ltibia 156.209
lfoot -21.0462 -26.5982
ltoes -5.64928
82
root 13.8112 27.8746 42.7353 122.379 4.98447 -173.329
lowerback 36.4993 -7.24149 3.14224
upperback 13.5595 -3.60506 -2.30747
thorax -3.48639 0.605218 -2.94391
lowerneck 2.82521 0.288126 -12.8841
upperneck 12.7765 0.20007 10.1049
head 3.2898 0.227477 5.27675
rclavicle 4.67144e-015 2.54444e-014
rhumerus 51.6496 14.2654 -76.1686
rradius 74.9344
rwrist 19.4987
rhand -0.188353 -27.3525
rfingers 7.12502
rthumb 25.41 -55.6791
lclavicle 4.67144e-015 2.54444e-014
lhumerus 47.2348 0.258331 65.2455
lradius 69.137
lwrist -25.8899
lhand 3.47309 0.137485
lfingers 7.12502
lthumb 28.9125 27.9163
rfemur -75.6826 -22.4403 28.479
rtibia 148.982
rfoot 13.5034 -3.89688
rtoes 19.8275
lfemur -78.0276 59.8614 4.15828
ltibia 156.455
lfoot -21.0123 -26.2275
ltoes -8.99178
83
root 13.8142 27.9083 42.6029 122.33 5.04422 -173.58
lowerback 35.9168 -6.98849 3.0841
upperback 13.4867 -3.47983 -2.36268
thorax -3.50378 0.595522 -3.0205
lowerneck 2.90185 0.161473 -12.6784
upperneck 13.2466 0.0589673 10.0188
head 3.43594 0.179694 5.22286
rclavicle -1.08338e-014 -1.47101e-014
rhumerus 50.5472 14.3441 -76.4272
rradius 75.8226
rwrist 19.641
rhand -0.0583204 -27.5627
rfingers 7.12502
rthumb 25.5345 -55.8715
lclavicle -1.08338e-014 -1.47101e-014
lhumerus 46.2122 -0.173555 65.7763
lradius 70.2287
lwrist -26.4669
lhand 3.22111 0.0947571
lfingers 7.12502
lthumb 28.6718 27.9145
rfemur -74.7286 -21.3024 27.971
rtibia 148.891
rfoot 16.5679 -1.55296
rtoes 15.6028
lfemur -74.445 61.2706 7.80901
ltibia 156.619
lfoot -21.1223 -26.8277
ltoes -8.42609
84
root 13.812 27.9407 42.4653 122.53 4.96247 -173.463
lowerback 35.1913 -6.92264 3.30731
upperback 13.2375 -3.54081 -2.30229
thorax -3.54081 0.476188 -3.06578
lowerneck 3.36242 0.126073 -12.6174
upperneck 13.2672 -0.00432745 9.94082
head 3.3754 0.151228 5.18584
rclavicle 2.67365e-014 -3.10104e-014
rhumerus 49.4206 14.5836 -76.4841
rradius 76.6914
rwrist 19.6126
rhand -0.169221 -27.8127
rfingers 7.12502
rthumb 25.4283 -56.1367
lclavicle 2.67365e-014 -3.10104e-014
lhumerus 45.0031 -0.523127 66.6176
lradius 71.4637
lwrist -27.2793
lhand 3.26901 -0.106691
lfingers 7.12502
lthumb 28.7176 27.7053
rfemur -74.0652 -20.8227 27.3122
rtibia 148.435
rfoot 20.1693 -2.30042
rtoes 16.7448
lfemur -72.3125 61.6102 10.3241
ltibia 156.792
lfoot -19.9808 -27.6742
ltoes -6.08862
